<?xml version="1.0" encoding="iso-8859-1"?>
<!-- Generator: Adobe Illustrator 19.0.0, SVG Export Plug-In . SVG Version: 6.00 Build 0)  -->
<svg version="1.1" id="Layer_1" xmlns="http://www.w3.org/2000/svg" xmlns:xlink="http://www.w3.org/1999/xlink" x="0px" y="0px"
	 viewBox="0 0 512 512" style="enable-background:new 0 0 512 512;" xml:space="preserve">
<path style="fill:#9CDBD8;" d="M186.885,104.57h-57.463V36.621h57.463V104.57z"/>
<path style="fill:#81D3D1;" d="M186.885,104.57h-19.154V36.621h19.154L186.885,104.57L186.885,104.57z"/>
<path style="fill:#BCEDEA;" d="M222.341,212.174c17.395,3.667,30.466,19.282,30.466,38.001v215.496
	c0,21.444-17.151,38.828-38.308,38.828H101.808c-21.157,0-38.308-17.384-38.308-38.828V250.176
	c0-18.719,13.071-34.334,30.466-38.001c3.919-0.826,6.725-4.328,6.725-8.385v-3.282c0-4.736-3.788-8.574-8.46-8.574l0,0
	c-10.579,0-19.154-8.692-19.154-19.414v-48.535c0-21.444,17.151-38.828,38.308-38.828h93.536c21.157,0,38.308,17.384,38.308,38.828
	v48.535c0,10.722-8.576,19.414-19.154,19.414l0,0c-4.672,0-8.46,3.839-8.46,8.575v3.282
	C215.616,207.847,218.423,211.348,222.341,212.174z"/>
<path style="fill:#DDDDDD;" d="M195.345,17.5v28.535c0,5.523-4.477,10-10,10h-54.382c-5.523,0-10-4.477-10-10V17.5
	c0-5.523,4.477-10,10-10h54.382C190.868,7.5,195.345,11.977,195.345,17.5z"/>
<path style="fill:#CECECE;" d="M195.345,17.207v29.121c0,5.361-4.288,9.707-9.577,9.707h-18.197V7.5h18.197
	C191.057,7.5,195.345,11.846,195.345,17.207z"/>
<path style="fill:#9CDBD8;" d="M252.808,250.176v215.496c0,21.444-17.151,38.828-38.308,38.828h-7.343h-7.023h-7.343
	c21.157,0,38.308-17.384,38.308-38.828V250.176c0-0.503-0.009-1.005-0.028-1.503c-0.762-20.285-17.771-36.111-37.899-36.111h-56.504
	c-5.29,0-9.577-4.346-9.577-9.707c0-0.205,0-1.009,0-1.213c0-5.361,4.288-9.707,9.577-9.707h65.7
	c10.579,0,19.154-8.692,19.154-19.414v-48.535c0-21.444-17.151-38.828-38.308-38.828h7.342h7.023h7.343
	c21.157,0,38.308,17.384,38.308,38.828v48.535c0,10.722-8.576,19.414-19.154,19.414l0,0c-4.672,0-8.46,3.839-8.46,8.574v3.282
	c0,4.057,2.806,7.559,6.725,8.385C239.736,215.841,252.808,231.457,252.808,250.176z"/>
<path style="fill:#E4F9F8;" d="M214.499,504.5H101.808c-21.157,0-38.308-17.384-38.308-38.828V250.176
	c0-2.661,0.273-5.256,0.776-7.766h41.598c5.947,0,11.813,1.403,17.132,4.099l60.44,30.63c5.319,2.696,11.185,4.099,17.132,4.099
	h52.23v184.434C252.808,487.116,235.656,504.5,214.499,504.5z"/>
<path style="fill:#D5F7F4;" d="M252.808,281.238v184.434c0,21.444-17.151,38.828-38.308,38.828h-9.305
	c-33.362-21.783-55.501-59.767-55.501-102.895c0-26.94,8.477-52.495,24.516-73.901c12.541-16.74,29.348-30.031,48.27-38.368v-8.098
	H252.808z"/>
<path style="fill:#B7CB4E;" d="M376.585,143.398h-35.348v-36.777c0-38.66,31.34-70,70-70h35.348v36.777
	C446.585,112.058,415.245,143.398,376.585,143.398z"/>
<path style="fill:#A4A74E;" d="M446.581,36.621h0.004v38.828c0,37.527-30.015,67.949-67.04,67.949h-38.308v-0.004L446.581,36.621z"
	/>
<path style="fill:#C9E665;" d="M448.5,401.605L448.5,401.605c0,56.827-45.451,102.895-101.517,102.895h-76.617
	c-56.066,0-101.517-46.067-101.517-102.894l0,0c0-46.712,30.713-86.146,72.786-98.708V269.59c0-37.527,30.015-67.949,67.04-67.949
	l0,0c37.025,0,67.04,30.422,67.04,67.949v33.308C417.787,315.459,448.5,354.894,448.5,401.605z"/>
<path style="fill:#B7CB4E;" d="M448.5,401.605L448.5,401.605c0,56.827-45.451,102.895-101.517,102.895h-25.858
	c56.066,0,101.517-46.067,101.517-102.894l0,0c0-42.041-24.878-66.385-60.524-79.991c-7.423-2.833-12.262-10.094-12.262-18.098
	V269.59c0-33.043-23.274-60.565-54.111-66.674c4.185-0.829,8.505-1.275,12.929-1.275l0,0c37.025,0,67.04,30.422,67.04,67.949v33.308
	C417.787,315.459,448.5,354.894,448.5,401.605z"/>
<path d="M200.291,504.5c0,4.143-3.357,7.5-7.5,7.5h-90.982C76.55,512,56,491.217,56,465.672V250.176c0-3.031,0.296-6.01,0.861-8.903
	c0.038-0.249,0.088-0.493,0.149-0.732c3.736-17.601,17.485-31.926,35.408-35.704c0.447-0.094,0.772-0.534,0.772-1.046v-3.282
	c0-0.593-0.431-1.074-0.96-1.074c-14.697,0-26.654-12.073-26.654-26.914v-48.535c0-25.545,20.55-46.328,45.809-46.328h10.537V61.015
	c-5.066-3.069-8.46-8.636-8.46-14.979V17.5c0-9.649,7.851-17.5,17.5-17.5h54.382c9.649,0,17.5,7.851,17.5,17.5v28.535
	c0,6.345-3.393,11.91-8.46,14.979v16.642h10.537c25.259,0,45.809,20.783,45.809,46.328v48.535c0,14.841-11.957,26.914-26.654,26.914
	c-0.529,0-0.96,0.481-0.96,1.074v3.282c0,0.512,0.325,0.952,0.772,1.046c3.625,0.764,7.158,1.978,10.499,3.606
	c3.723,1.816,5.269,6.307,3.453,10.029c-1.816,3.723-6.305,5.267-10.029,3.453c-2.233-1.09-4.594-1.901-7.016-2.411
	c-7.348-1.549-12.68-8.161-12.68-15.724v-3.282c0-0.361,0.012-0.72,0.035-1.075h-73.78c-4.143,0-7.5-3.357-7.5-7.5
	s3.357-7.5,7.5-7.5h89.705c0.032,0,0.063,0,0.096,0.001c6.382-0.054,11.559-5.378,11.559-11.914v-48.535
	c0-17.274-13.82-31.328-30.809-31.328h-32.482c-4.143,0-7.5-3.357-7.5-7.5s3.357-7.5,7.5-7.5h6.945v-14.12h-42.462v14.121h12.053
	c4.143,0,7.5,3.357,7.5,7.5s-3.357,7.5-7.5,7.5h-37.59c-16.988,0-30.809,14.054-30.809,31.328v48.535
	c0,6.569,5.229,11.914,11.654,11.914c8.801,0,15.96,7.211,15.96,16.074v3.282c0,7.563-5.332,14.175-12.679,15.724
	c-8.931,1.883-16.322,7.68-20.579,15.396h30.94c7.089,0,14.186,1.698,20.522,4.91l60.439,30.628c4.245,2.152,8.997,3.29,13.741,3.29
	h11.368c4.143,0,7.5,3.357,7.5,7.5s-3.357,7.5-7.5,7.5h-11.368c-7.089,0-14.186-1.698-20.522-4.91L119.615,253.2
	c-4.245-2.152-8.997-3.29-13.741-3.29H71.001C71,249.998,71,250.087,71,250.176v215.496C71,482.946,84.82,497,101.809,497h90.982
	C196.934,497,200.291,500.357,200.291,504.5z M128.463,46.035c0,1.379,1.121,2.5,2.5,2.5h54.382c1.379,0,2.5-1.121,2.5-2.5V17.5
	c0-1.379-1.121-2.5-2.5-2.5h-54.382c-1.379,0-2.5,1.121-2.5,2.5V46.035z M214.656,400.635c0-4.143-3.357-7.5-7.5-7.5
	s-7.5,3.357-7.5,7.5c0,38.927,31.291,70.596,69.752,70.596c4.143,0,7.5-3.357,7.5-7.5s-3.357-7.5-7.5-7.5
	C239.218,456.23,214.656,431.29,214.656,400.635z M456,401.605C456,462.478,407.095,512,346.982,512h-76.617
	c-60.112,0-109.017-49.522-109.017-110.395c0-24.299,7.646-47.349,22.113-66.657c12.869-17.177,30.706-30.333,50.673-37.48V269.59
	c0-39.041,29.446-71.251,67.039-75.07V98.526l-22.012-17.162c-3.267-2.547-3.851-7.26-1.304-10.526
	c2.548-3.267,7.259-3.849,10.526-1.304l24.9,19.414c1.823,1.422,2.889,3.604,2.889,5.915v63.259l17.563-17.801v-33.7
	c0-42.733,34.767-77.5,77.5-77.5h35.349c4.143,0,7.5,3.357,7.5,7.5v36.777c0,42.733-34.767,77.5-77.5,77.5h-32.213l-26.528,26.889
	c-0.507,0.514-1.07,0.939-1.67,1.276v15.463c33.584,3.47,61.439,29.954,66.288,64.308c0.578,4.102-2.277,7.896-6.379,8.475
	c-4.08,0.572-7.895-2.275-8.475-6.379c-4.167-29.524-29.503-51.789-58.935-51.789c-32.83,0-59.539,27.117-59.539,60.449v33.308
	c0,3.315-2.178,6.238-5.354,7.187c-39.703,11.854-67.432,49.489-67.432,91.521c0,52.601,42.176,95.395,94.017,95.395h76.617
	C398.824,497,441,454.206,441,401.605c0-42.032-27.729-79.668-67.432-91.521c-3.178-0.948-5.354-3.871-5.354-7.187v-13.894
	c0-4.143,3.357-7.5,7.5-7.5s7.5,3.357,7.5,7.5v8.464c19.967,7.147,37.804,20.304,50.673,37.48
	C448.354,354.257,456,377.307,456,401.605z M348.736,125.118l54.201-54.937c2.911-2.95,7.658-2.979,10.606-0.071
	c2.948,2.909,2.98,7.658,0.071,10.606l-54.443,55.182h17.413c34.463,0,62.5-28.037,62.5-62.5V44.121h-27.849
	c-34.463,0-62.5,28.037-62.5,62.5v18.497H348.736z"/>
<path style="fill:#88E5EA;" d="M98.289,389v1c0,4.142-3.341,7.5-7.463,7.5s-7.463-3.358-7.463-7.5v-1c0-4.142,3.341-7.5,7.463-7.5
	S98.289,384.858,98.289,389z M90.826,272.5c-4.121,0-7.463,3.358-7.463,7.5v1c0,4.142,3.341,7.5,7.463,7.5s7.463-3.358,7.463-7.5v-1
	C98.289,275.858,94.947,272.5,90.826,272.5z M120.677,292.5c-4.121,0-7.463,3.358-7.463,7.5v1c0,4.142,3.341,7.5,7.463,7.5
	s7.463-3.358,7.463-7.5v-1C128.139,295.858,124.798,292.5,120.677,292.5z"/>
<g>
</g>
<g>
</g>
<g>
</g>
<g>
</g>
<g>
</g>
<g>
</g>
<g>
</g>
<g>
</g>
<g>
</g>
<g>
</g>
<g>
</g>
<g>
</g>
<g>
</g>
<g>
</g>
<g>
</g>
</svg>
