<?xml version="1.0" encoding="iso-8859-1"?>
<!-- Generator: Adobe Illustrator 19.0.0, SVG Export Plug-In . SVG Version: 6.00 Build 0)  -->
<svg version="1.1" id="Layer_1" xmlns="http://www.w3.org/2000/svg" xmlns:xlink="http://www.w3.org/1999/xlink" x="0px" y="0px"
	 viewBox="0 0 512 512" style="enable-background:new 0 0 512 512;" xml:space="preserve">
<circle style="fill:#71E2EF;" cx="256" cy="256" r="256"/>
<path style="fill:#02B2B2;" d="M510.574,283.079L401.929,174.433l-204.254,94.496l-93.32,48.504l191.478,191.478
	C409.534,491.146,498.433,398.55,510.574,283.079z"/>
<path style="fill:#D35933;" d="M312.889,270.222c0-47.128-50.94-85.333-113.778-85.333S85.333,223.094,85.333,270.222
	c0,42.131,40.72,77.105,94.246,84.054l19.532,43.946l19.532-43.946C272.168,347.327,312.889,312.353,312.889,270.222z"/>
<path style="fill:#B54324;" d="M199.111,398.222l19.532-43.946c53.526-6.949,94.246-41.924,94.246-84.054
	c0-47.128-50.94-85.333-113.778-85.333V398.222z"/>
<path style="fill:#EAA22F;" d="M426.667,227.556c0-47.128-50.94-85.333-113.778-85.333s-113.778,38.205-113.778,85.333
	c0,42.131,40.72,77.105,94.246,84.054l19.532,43.946l19.532-43.946C385.946,304.661,426.667,269.686,426.667,227.556z"/>
<path style="fill:#E09112;" d="M312.889,355.556l19.532-43.946c53.526-6.949,94.246-41.924,94.246-84.054
	c0-47.128-50.94-85.333-113.778-85.333V355.556z"/>
<g>
</g>
<g>
</g>
<g>
</g>
<g>
</g>
<g>
</g>
<g>
</g>
<g>
</g>
<g>
</g>
<g>
</g>
<g>
</g>
<g>
</g>
<g>
</g>
<g>
</g>
<g>
</g>
<g>
</g>
</svg>
