<?xml version="1.0" encoding="iso-8859-1"?>
<!-- Generator: Adobe Illustrator 19.0.0, SVG Export Plug-In . SVG Version: 6.00 Build 0)  -->
<svg version="1.1" id="Layer_1" xmlns="http://www.w3.org/2000/svg" xmlns:xlink="http://www.w3.org/1999/xlink" x="0px" y="0px"
	 viewBox="0 0 512 512" style="enable-background:new 0 0 512 512;" xml:space="preserve">
<polygon style="fill:#FAEDD6;" points="18.979,484.846 10.805,460.327 18.979,435.808 10.805,411.288 18.979,386.77 10.805,362.249 
	18.979,337.729 10.805,313.212 18.979,288.69 10.805,264.171 18.979,239.652 10.805,215.128 18.979,190.612 10.805,166.096 
	18.979,141.574 10.805,117.057 18.979,92.534 10.805,68.011 18.979,51.668 10.805,27.149 493.022,27.149 501.195,51.668 
	493.022,68.011 501.195,92.534 493.022,117.057 501.195,141.574 493.022,166.096 501.195,190.612 493.022,215.128 501.195,239.652 
	493.022,264.171 501.195,288.69 493.022,313.212 501.195,337.729 493.022,362.249 501.195,386.77 493.022,411.288 501.195,435.808 
	493.022,460.327 501.195,484.846 "/>
<rect x="59.844" y="27.151" style="fill:#36C9A3;" width="392.311" height="457.698"/>
<g>
	<path style="fill:#FA004B;" d="M323.648,255.195c17.58-17.58,17.55-46.111-0.03-63.691l0.015,0.015
		c-17.58-17.58-46.067-17.564-63.646,0.016l-3.979,3.979l-3.979-3.979c-17.58-17.58-46.081-17.58-63.661,0s-17.58,46.081,0,63.661
		l67.58,67.58l0.06,0.06l63.661-63.661L323.648,255.195z"/>
	<path style="fill:#FA004B;" d="M295.388,203.67c9.323,0,16.881,7.557,16.881,16.881"/>
</g>
<g>
	<path style="fill:#232323;" d="M501.231,460.327l8.173-24.518l-8.173-24.519l8.173-24.519l-8.173-24.519l8.173-24.519
		l-8.173-24.518l8.173-24.52l-8.173-24.518l8.173-24.519l-8.173-24.523l8.173-24.515l-8.173-24.517l8.173-24.522l-8.173-24.515
		l8.173-24.522l-7.974-23.925l8.173-16.342l-10.968-32.905H0l10.57,31.709L2.397,67.412l8.372,25.122l-8.173,24.523l8.173,24.515
		l-8.173,24.522l8.173,24.517l-8.173,24.516l8.173,24.523l-8.173,24.52l8.173,24.518l-8.173,24.52l8.173,24.518l-8.173,24.52
		l8.173,24.519l-8.173,24.519l8.173,24.519l-8.173,24.519l10.769,32.307H512L501.231,460.327z M492.986,141.572l-8.173,24.522
		l8.173,24.517l-8.173,24.515l8.173,24.523l-8.173,24.519l8.173,24.518l-8.173,24.52l8.173,24.518l-8.173,24.519l8.173,24.519
		l-8.173,24.519l8.173,24.519l-8.173,24.518l5.577,16.731h-30.867v-5.078h-15.576v5.078H67.015v-5.078H51.439v5.078H24.592
		l-5.577-16.731l8.173-24.518l-8.173-24.519l8.173-24.519l-8.173-24.519l8.173-24.519l-8.173-24.518l8.173-24.52l-8.173-24.518
		l8.173-24.519l-8.173-24.523l8.173-24.515l-8.173-24.517l8.173-24.522l-8.173-24.515l8.173-24.522L19.214,68.61l8.173-16.342
		l-5.777-17.33h29.829v5.078h15.576v-5.078h376.932v5.078h15.576v-5.078h27.886l5.378,16.133l-8.173,16.342l8.372,25.122
		l-8.173,24.522L492.986,141.572z"/>
	<rect x="51.441" y="172.929" style="fill:#232323;" width="15.576" height="16.614"/>
	<rect x="51.441" y="197.851" style="fill:#232323;" width="15.576" height="16.614"/>
	<rect x="51.441" y="222.772" style="fill:#232323;" width="15.576" height="16.614"/>
	<rect x="51.441" y="123.087" style="fill:#232323;" width="15.576" height="16.614"/>
	<rect x="51.441" y="73.245" style="fill:#232323;" width="15.576" height="16.614"/>
	<rect x="51.441" y="98.166" style="fill:#232323;" width="15.576" height="16.614"/>
	<rect x="51.441" y="148.008" style="fill:#232323;" width="15.576" height="16.614"/>
	<rect x="51.441" y="272.614" style="fill:#232323;" width="15.576" height="16.614"/>
	<rect x="51.441" y="372.299" style="fill:#232323;" width="15.576" height="16.614"/>
	<rect x="51.441" y="397.22" style="fill:#232323;" width="15.576" height="16.614"/>
	<rect x="51.441" y="422.141" style="fill:#232323;" width="15.576" height="16.614"/>
	<rect x="51.441" y="48.322" style="fill:#232323;" width="15.576" height="16.614"/>
	<rect x="51.441" y="447.062" style="fill:#232323;" width="15.576" height="16.614"/>
	<rect x="51.441" y="297.535" style="fill:#232323;" width="15.576" height="16.614"/>
	<rect x="51.441" y="322.456" style="fill:#232323;" width="15.576" height="16.614"/>
	<rect x="51.441" y="347.378" style="fill:#232323;" width="15.576" height="16.614"/>
	<rect x="51.441" y="247.693" style="fill:#232323;" width="15.576" height="16.614"/>
	<rect x="443.95" y="148.008" style="fill:#232323;" width="15.576" height="16.614"/>
	<rect x="443.95" y="447.062" style="fill:#232323;" width="15.576" height="16.614"/>
	<rect x="443.95" y="123.087" style="fill:#232323;" width="15.576" height="16.614"/>
	<rect x="443.95" y="197.851" style="fill:#232323;" width="15.576" height="16.614"/>
	<rect x="443.95" y="172.929" style="fill:#232323;" width="15.576" height="16.614"/>
	<rect x="443.95" y="48.322" style="fill:#232323;" width="15.576" height="16.614"/>
	<rect x="443.95" y="98.166" style="fill:#232323;" width="15.576" height="16.614"/>
	<rect x="443.95" y="73.245" style="fill:#232323;" width="15.576" height="16.614"/>
	<rect x="443.95" y="222.772" style="fill:#232323;" width="15.576" height="16.614"/>
	<rect x="443.95" y="397.22" style="fill:#232323;" width="15.576" height="16.614"/>
	<rect x="443.95" y="372.299" style="fill:#232323;" width="15.576" height="16.614"/>
	<rect x="443.95" y="247.693" style="fill:#232323;" width="15.576" height="16.614"/>
	<rect x="443.95" y="347.378" style="fill:#232323;" width="15.576" height="16.614"/>
	<rect x="443.95" y="422.141" style="fill:#232323;" width="15.576" height="16.614"/>
	<rect x="443.95" y="272.614" style="fill:#232323;" width="15.576" height="16.614"/>
	<rect x="443.95" y="297.535" style="fill:#232323;" width="15.576" height="16.614"/>
	<rect x="443.95" y="322.456" style="fill:#232323;" width="15.576" height="16.614"/>
</g>
<g>
	<path style="fill:#FFFFFF;" d="M256.001,419.075c-94.428,0-171.251-76.823-171.251-171.251s76.823-171.25,171.251-171.25
		s171.251,76.823,171.251,171.251S350.429,419.075,256.001,419.075z M256.001,92.15c-85.84,0-155.675,69.835-155.675,155.675
		S170.161,403.5,256.001,403.5s155.675-69.835,155.675-155.675S341.84,92.15,256.001,92.15z"/>
	<path style="fill:#FFFFFF;" d="M256.001,394.555V378.98c66.526,0,122.525-49.746,130.257-115.714l15.47,1.813
		C393.075,338.893,330.427,394.555,256.001,394.555z"/>
	<path style="fill:#FFFFFF;" d="M402.732,247.691h-15.576c0-35.305-13.699-68.042-38.574-92.832l10.995-11.066
		C387.406,171.527,402.732,208.232,402.732,247.691z"/>
	<path style="fill:#FFFFFF;" d="M178.321,372.33c-43.239-27.03-69.053-73.575-69.053-124.505
		c0-80.908,65.824-146.732,146.732-146.732c31.279,0,61.133,9.708,86.334,28.074l-9.174,12.588
		c-22.518-16.413-49.2-25.086-77.16-25.086c-72.319,0-131.156,58.836-131.156,131.156c0,45.526,23.078,87.133,61.734,111.299
		L178.321,372.33z"/>
	<path style="fill:#FFFFFF;" d="M212.855,388.107c-8.933-2.744-17.649-6.373-25.908-10.785l7.339-13.738
		c7.378,3.942,15.163,7.184,23.142,9.634L212.855,388.107z"/>
</g>
<path style="fill:#232323;" d="M255.797,333.826l-5.473-5.543l-67.522-67.58c-20.588-20.589-20.559-54.088,0.029-74.676
	c20.087-20.085,52.477-20.428,73.161-1.32c9.779-9.043,22.425-13.856,35.814-13.856c0.005,0,0.014,0,0.019,0
	c14.089,0,27.517,5.335,36.863,15.294v-0.075c20.768,20.605,20.768,54.081,0,74.669v-0.018L255.797,333.826z M220.198,186.154
	c-9.533,0-19.066,3.629-26.324,10.886c-14.514,14.514-14.514,38.133,0,52.648l62.133,62.133l62.134-62.133
	c14.509-14.511,14.5-38.131-0.016-52.665v0.001c-14.506-14.507-38.117-14.5-52.632,0.016l-9.485,9.486l-9.487-9.486
	C239.264,189.783,229.732,186.154,220.198,186.154z"/>
<path style="fill:#FFFFFF;" d="M320.057,220.693h-15.576c0-5.192-3.831-9.235-9.022-9.235v-15.576
	C308.958,195.882,320.057,207.194,320.057,220.693z"/>
<g>
	<rect x="288.192" y="444.985" style="fill:#FA004B;" width="123.567" height="15.576"/>
	<rect x="264.31" y="444.985" style="fill:#FA004B;" width="16.614" height="15.576"/>
</g>
<g>
	<polygon style="fill:#FFFFFF;" points="100.243,84.665 84.668,84.665 84.668,52.475 150.086,52.475 150.086,68.051 100.243,68.051 
			"/>
	<rect x="165.663" y="52.477" style="fill:#FFFFFF;" width="16.614" height="15.576"/>
</g>
<g>
</g>
<g>
</g>
<g>
</g>
<g>
</g>
<g>
</g>
<g>
</g>
<g>
</g>
<g>
</g>
<g>
</g>
<g>
</g>
<g>
</g>
<g>
</g>
<g>
</g>
<g>
</g>
<g>
</g>
</svg>
